<?xml version="1.0" encoding="utf-8"?>
<!-- Svg Vector Icons : http://www.onlinewebfonts.com/icon -->
<!DOCTYPE svg PUBLIC "-//W3C//DTD SVG 1.1//EN" "http://www.w3.org/Graphics/SVG/1.1/DTD/svg11.dtd">
<svg version="1.1" xmlns="http://www.w3.org/2000/svg" xmlns:xlink="http://www.w3.org/1999/xlink" x="0px" y="0px" viewBox="0 0 1000 1000" enable-background="new 0 0 1000 1000" xml:space="preserve">
<metadata> Svg Vector Icons : http://www.onlinewebfonts.com/icon </metadata>
<g><g transform="translate(0.000000,511.000000) scale(0.100000,-0.100000)"><path d="M7512.5,4581.7c-221.3-237.7-401.7-438.6-401.7-448.8c0-24.6,1651.8-1479.6,1678.4-1479.6c22.5,0,780.8,873,780.8,897.6S7959.3,5010,7932.6,5010C7922.4,5010,7733.9,4817.4,7512.5,4581.7z"/><path d="M5620.9,2526.2C5002.1,1868.3,3670,452.2,2657.6-621.6C1647.3-1693.4,819.3-2582.9,819.3-2595.1c0-24.6,1657.9-1698.9,1682.5-1698.9c20.5,0,5900.1,6533.3,5900.1,6555.9c0,22.5-1610.8,1457.1-1637.4,1457.1C6754.2,3718.9,6239.9,3182,5620.9,2526.2z"/><path d="M430-3869.8V-4790l149.6,12.3c79.9,8.2,465.2,30.7,852.5,53.3c389.4,22.5,709.1,45.1,713.2,47.1c2,4.1-383.2,393.5-854.6,864.8L430-2951.7V-3869.8z"/></g></g>
</svg>